<?xml version="1.0" encoding="utf-8"?>
<!-- Generator: Adobe Illustrator 26.0.1, SVG Export Plug-In . SVG Version: 6.00 Build 0)  -->
<svg version="1.1" id="Calque_1" xmlns="http://www.w3.org/2000/svg" xmlns:xlink="http://www.w3.org/1999/xlink" x="0px" y="0px"
	 viewBox="0 0 2000 2000" style="enable-background:new 0 0 2000 2000;" xml:space="preserve">
<style type="text/css">
	.st0{fill:#B5B5B5;}
	.st1{fill:#303030;}
</style>
<g id="Calque_2">
	<rect x="1721.9" y="357.6" class="st0" width="99.6" height="1050.9"/>
</g>
<g>
	<path class="st1" d="M1143.1,1437.2l-1.9,193.1c0,0,245.1,0.1,248.6,0.4c13.4,1.1,23.2,12,23.3,25.6c0.1,13.6-9.5,24.5-22.9,25.9
		c-2.9,0.3-776.3,0.4-780.1,0c-13.8-1.3-23.5-12.6-23.2-26.6c0.3-14.2,12.4-24.8,24-25c3.2-0.1,244.4,0.5,248.4-1.3
		c0.2-2-0.4-191.7-0.4-191.7s-680.4-0.6-683.9-0.8c-14.1-0.8-24.3-10.6-25.6-24.7c-0.2-2.3-0.2-1067.1,0-1069.2
		c0.9-13.8,10.2-23.7,24-25.4c1.8-0.2,1646.6-0.4,1650.8-0.2c16.1,0.7,26.3,11.2,26.7,27.2c0.1,3,0.1,1063.9,0,1066.5
		c-0.6,14.4-11,24.9-25.4,25.7C1821.8,1437.2,1143.1,1437.2,1143.1,1437.2z M202.6,370.7l-1,1013.7l1596.4,0.2L1796.7,371
		L202.6,370.7z M912.4,1630.4l175.7,0v-193.1l-174.7,0.6L912.4,1630.4z"/>
	<polygon class="st1" points="1153.2,759.5 1153.3,693.4 1523.5,847.7 1523.5,908.3 1153.4,1069.9 1153,1003.3 1444.2,882.3 	"/>
	<polygon class="st1" points="846.9,693.5 846.9,759.5 554.4,880 846.4,1003.1 846.7,1069.2 477.1,912.6 476.9,849.1 	"/>
	<polygon class="st1" points="1054.2,588.2 1108.5,588 946.2,1167.5 890.8,1167.5 	"/>
</g>
</svg>
